<mxfile host="app.diagrams.net" modified="2024-03-04T01:18:17.632Z" agent="Mozilla/5.0 (Windows NT 10.0; Win64; x64) AppleWebKit/537.36 (KHTML, like Gecko) Chrome/121.0.0.0 Safari/537.36" version="23.0.1" etag="j7yCtCGwa1_HJXsSIwgy" type="github">
  <diagram name="第 1 页" id="FtfnRYtvO2ZGQhAoZDk_">
    <mxGraphModel>
      <root>
        <mxCell id="0" />
        <mxCell id="1" parent="0" />
      </root>
    </mxGraphModel>
  </diagram>
</mxfile>
